<mxfile host="app.diagrams.net" modified="2022-09-02T15:22:18.374Z" agent="5.0 (Windows NT 10.0; Win64; x64) AppleWebKit/537.36 (KHTML, like Gecko) Chrome/104.0.5112.102 Safari/537.36 Edg/104.0.1293.70" etag="QIwUoQs5diFtHh5EjDZd" version="20.2.7" type="github">
  <diagram id="EPZEcKvd0-_Oa5hTfupS" name="Page-1">
    <mxGraphModel dx="1663" dy="454" grid="1" gridSize="10" guides="1" tooltips="1" connect="1" arrows="1" fold="1" page="1" pageScale="1" pageWidth="850" pageHeight="1100" math="0" shadow="0">
      <root>
        <mxCell id="0" />
        <mxCell id="1" parent="0" />
        <mxCell id="tMtmgjyBRn-5rdvHNmGA-1" value="screens" style="text;html=1;strokeColor=none;fillColor=none;align=center;verticalAlign=middle;whiteSpace=wrap;rounded=0;" parent="1" vertex="1">
          <mxGeometry x="-10" y="80" width="60" height="30" as="geometry" />
        </mxCell>
        <mxCell id="tMtmgjyBRn-5rdvHNmGA-5" value="components" style="text;html=1;strokeColor=none;fillColor=none;align=center;verticalAlign=middle;whiteSpace=wrap;rounded=0;" parent="1" vertex="1">
          <mxGeometry x="140" y="80" width="100" height="30" as="geometry" />
        </mxCell>
        <mxCell id="tMtmgjyBRn-5rdvHNmGA-61" style="edgeStyle=orthogonalEdgeStyle;rounded=0;orthogonalLoop=1;jettySize=auto;html=1;entryX=0;entryY=0.5;entryDx=0;entryDy=0;strokeColor=#000000;" parent="1" source="tMtmgjyBRn-5rdvHNmGA-7" target="tMtmgjyBRn-5rdvHNmGA-51" edge="1">
          <mxGeometry relative="1" as="geometry" />
        </mxCell>
        <mxCell id="tMtmgjyBRn-5rdvHNmGA-68" style="edgeStyle=orthogonalEdgeStyle;rounded=0;orthogonalLoop=1;jettySize=auto;html=1;entryX=0;entryY=0.5;entryDx=0;entryDy=0;strokeColor=#000000;" parent="1" source="tMtmgjyBRn-5rdvHNmGA-7" target="tMtmgjyBRn-5rdvHNmGA-66" edge="1">
          <mxGeometry relative="1" as="geometry">
            <Array as="points">
              <mxPoint x="140" y="535" />
              <mxPoint x="140" y="575" />
            </Array>
          </mxGeometry>
        </mxCell>
        <mxCell id="tMtmgjyBRn-5rdvHNmGA-7" value="brands" style="rounded=0;whiteSpace=wrap;html=1;" parent="1" vertex="1">
          <mxGeometry y="520" width="130" height="30" as="geometry" />
        </mxCell>
        <mxCell id="tMtmgjyBRn-5rdvHNmGA-32" style="edgeStyle=orthogonalEdgeStyle;rounded=0;orthogonalLoop=1;jettySize=auto;html=1;entryX=0;entryY=0.5;entryDx=0;entryDy=0;" parent="1" source="tMtmgjyBRn-5rdvHNmGA-8" target="tMtmgjyBRn-5rdvHNmGA-24" edge="1">
          <mxGeometry relative="1" as="geometry" />
        </mxCell>
        <mxCell id="tMtmgjyBRn-5rdvHNmGA-8" value="recommends (9x)" style="rounded=0;whiteSpace=wrap;html=1;" parent="1" vertex="1">
          <mxGeometry x="160" y="160" width="130" height="30" as="geometry" />
        </mxCell>
        <mxCell id="tMtmgjyBRn-5rdvHNmGA-9" value="categories (9x)" style="rounded=0;whiteSpace=wrap;html=1;" parent="1" vertex="1">
          <mxGeometry x="160" y="200" width="130" height="30" as="geometry" />
        </mxCell>
        <mxCell id="tMtmgjyBRn-5rdvHNmGA-10" value="brands (9x)" style="rounded=0;whiteSpace=wrap;html=1;" parent="1" vertex="1">
          <mxGeometry x="160" y="240" width="130" height="30" as="geometry" />
        </mxCell>
        <mxCell id="tMtmgjyBRn-5rdvHNmGA-11" value="cart list (custom)" style="rounded=0;whiteSpace=wrap;html=1;" parent="1" vertex="1">
          <mxGeometry x="160" y="280" width="130" height="30" as="geometry" />
        </mxCell>
        <mxCell id="tMtmgjyBRn-5rdvHNmGA-40" style="edgeStyle=orthogonalEdgeStyle;rounded=0;orthogonalLoop=1;jettySize=auto;html=1;" parent="1" source="tMtmgjyBRn-5rdvHNmGA-14" target="tMtmgjyBRn-5rdvHNmGA-39" edge="1">
          <mxGeometry relative="1" as="geometry" />
        </mxCell>
        <mxCell id="tMtmgjyBRn-5rdvHNmGA-14" value="product list" style="rounded=0;whiteSpace=wrap;html=1;" parent="1" vertex="1">
          <mxGeometry x="160" y="360" width="130" height="30" as="geometry" />
        </mxCell>
        <mxCell id="tMtmgjyBRn-5rdvHNmGA-31" style="edgeStyle=orthogonalEdgeStyle;rounded=0;orthogonalLoop=1;jettySize=auto;html=1;entryX=0;entryY=0.5;entryDx=0;entryDy=0;" parent="1" source="tMtmgjyBRn-5rdvHNmGA-16" target="tMtmgjyBRn-5rdvHNmGA-23" edge="1">
          <mxGeometry relative="1" as="geometry" />
        </mxCell>
        <mxCell id="tMtmgjyBRn-5rdvHNmGA-16" value="home loader" style="rounded=0;whiteSpace=wrap;html=1;" parent="1" vertex="1">
          <mxGeometry x="160" y="120" width="130" height="30" as="geometry" />
        </mxCell>
        <mxCell id="tMtmgjyBRn-5rdvHNmGA-34" style="edgeStyle=orthogonalEdgeStyle;rounded=0;orthogonalLoop=1;jettySize=auto;html=1;entryX=0;entryY=0.5;entryDx=0;entryDy=0;" parent="1" source="tMtmgjyBRn-5rdvHNmGA-17" target="tMtmgjyBRn-5rdvHNmGA-33" edge="1">
          <mxGeometry relative="1" as="geometry" />
        </mxCell>
        <mxCell id="tMtmgjyBRn-5rdvHNmGA-17" value="cart loader" style="rounded=0;whiteSpace=wrap;html=1;" parent="1" vertex="1">
          <mxGeometry x="160" y="320" width="130" height="30" as="geometry" />
        </mxCell>
        <mxCell id="tMtmgjyBRn-5rdvHNmGA-52" style="edgeStyle=orthogonalEdgeStyle;rounded=0;orthogonalLoop=1;jettySize=auto;html=1;entryX=1;entryY=0.5;entryDx=0;entryDy=0;dashed=1;strokeColor=#FF0080;" parent="1" source="tMtmgjyBRn-5rdvHNmGA-18" target="tMtmgjyBRn-5rdvHNmGA-9" edge="1">
          <mxGeometry relative="1" as="geometry">
            <Array as="points">
              <mxPoint x="480" y="495" />
              <mxPoint x="480" y="215" />
            </Array>
          </mxGeometry>
        </mxCell>
        <mxCell id="tMtmgjyBRn-5rdvHNmGA-54" value="reused by" style="edgeLabel;html=1;align=center;verticalAlign=middle;resizable=0;points=[];" parent="tMtmgjyBRn-5rdvHNmGA-52" vertex="1" connectable="0">
          <mxGeometry x="-0.7527" relative="1" as="geometry">
            <mxPoint as="offset" />
          </mxGeometry>
        </mxCell>
        <mxCell id="tMtmgjyBRn-5rdvHNmGA-18" value="category list (custom)" style="rounded=0;whiteSpace=wrap;html=1;" parent="1" vertex="1">
          <mxGeometry x="160" y="480" width="130" height="30" as="geometry" />
        </mxCell>
        <mxCell id="tMtmgjyBRn-5rdvHNmGA-27" style="edgeStyle=orthogonalEdgeStyle;rounded=0;orthogonalLoop=1;jettySize=auto;html=1;" parent="1" source="tMtmgjyBRn-5rdvHNmGA-19" target="tMtmgjyBRn-5rdvHNmGA-16" edge="1">
          <mxGeometry relative="1" as="geometry" />
        </mxCell>
        <mxCell id="tMtmgjyBRn-5rdvHNmGA-28" style="edgeStyle=orthogonalEdgeStyle;rounded=0;orthogonalLoop=1;jettySize=auto;html=1;entryX=0;entryY=0.5;entryDx=0;entryDy=0;" parent="1" source="tMtmgjyBRn-5rdvHNmGA-19" target="tMtmgjyBRn-5rdvHNmGA-8" edge="1">
          <mxGeometry relative="1" as="geometry">
            <Array as="points">
              <mxPoint x="140" y="135" />
              <mxPoint x="140" y="175" />
            </Array>
          </mxGeometry>
        </mxCell>
        <mxCell id="tMtmgjyBRn-5rdvHNmGA-29" style="edgeStyle=orthogonalEdgeStyle;rounded=0;orthogonalLoop=1;jettySize=auto;html=1;entryX=0;entryY=0.5;entryDx=0;entryDy=0;" parent="1" source="tMtmgjyBRn-5rdvHNmGA-19" target="tMtmgjyBRn-5rdvHNmGA-9" edge="1">
          <mxGeometry relative="1" as="geometry">
            <Array as="points">
              <mxPoint x="140" y="135" />
              <mxPoint x="140" y="215" />
            </Array>
          </mxGeometry>
        </mxCell>
        <mxCell id="tMtmgjyBRn-5rdvHNmGA-30" style="edgeStyle=orthogonalEdgeStyle;rounded=0;orthogonalLoop=1;jettySize=auto;html=1;entryX=0;entryY=0.5;entryDx=0;entryDy=0;" parent="1" source="tMtmgjyBRn-5rdvHNmGA-19" target="tMtmgjyBRn-5rdvHNmGA-10" edge="1">
          <mxGeometry relative="1" as="geometry">
            <Array as="points">
              <mxPoint x="140" y="135" />
              <mxPoint x="140" y="255" />
            </Array>
          </mxGeometry>
        </mxCell>
        <mxCell id="tMtmgjyBRn-5rdvHNmGA-19" value="home" style="rounded=0;whiteSpace=wrap;html=1;" parent="1" vertex="1">
          <mxGeometry y="120" width="130" height="30" as="geometry" />
        </mxCell>
        <mxCell id="tMtmgjyBRn-5rdvHNmGA-35" style="edgeStyle=orthogonalEdgeStyle;rounded=0;orthogonalLoop=1;jettySize=auto;html=1;" parent="1" source="tMtmgjyBRn-5rdvHNmGA-20" target="tMtmgjyBRn-5rdvHNmGA-11" edge="1">
          <mxGeometry relative="1" as="geometry" />
        </mxCell>
        <mxCell id="tMtmgjyBRn-5rdvHNmGA-36" style="edgeStyle=orthogonalEdgeStyle;rounded=0;orthogonalLoop=1;jettySize=auto;html=1;entryX=0;entryY=0.5;entryDx=0;entryDy=0;" parent="1" source="tMtmgjyBRn-5rdvHNmGA-20" target="tMtmgjyBRn-5rdvHNmGA-17" edge="1">
          <mxGeometry relative="1" as="geometry">
            <Array as="points">
              <mxPoint x="140" y="295" />
              <mxPoint x="140" y="335" />
            </Array>
          </mxGeometry>
        </mxCell>
        <mxCell id="tMtmgjyBRn-5rdvHNmGA-20" value="cart" style="rounded=0;whiteSpace=wrap;html=1;" parent="1" vertex="1">
          <mxGeometry y="280" width="130" height="30" as="geometry" />
        </mxCell>
        <mxCell id="tMtmgjyBRn-5rdvHNmGA-62" style="edgeStyle=orthogonalEdgeStyle;rounded=0;orthogonalLoop=1;jettySize=auto;html=1;entryX=0;entryY=0.5;entryDx=0;entryDy=0;strokeColor=#000000;" parent="1" source="tMtmgjyBRn-5rdvHNmGA-21" target="tMtmgjyBRn-5rdvHNmGA-14" edge="1">
          <mxGeometry relative="1" as="geometry" />
        </mxCell>
        <mxCell id="tMtmgjyBRn-5rdvHNmGA-63" style="edgeStyle=orthogonalEdgeStyle;rounded=0;orthogonalLoop=1;jettySize=auto;html=1;entryX=0;entryY=0.5;entryDx=0;entryDy=0;strokeColor=#000000;" parent="1" source="tMtmgjyBRn-5rdvHNmGA-21" target="tMtmgjyBRn-5rdvHNmGA-41" edge="1">
          <mxGeometry relative="1" as="geometry">
            <Array as="points">
              <mxPoint x="140" y="375" />
              <mxPoint x="140" y="415" />
            </Array>
          </mxGeometry>
        </mxCell>
        <mxCell id="tMtmgjyBRn-5rdvHNmGA-64" style="edgeStyle=orthogonalEdgeStyle;rounded=0;orthogonalLoop=1;jettySize=auto;html=1;entryX=0;entryY=0.5;entryDx=0;entryDy=0;strokeColor=#000000;" parent="1" source="tMtmgjyBRn-5rdvHNmGA-21" target="tMtmgjyBRn-5rdvHNmGA-45" edge="1">
          <mxGeometry relative="1" as="geometry">
            <Array as="points">
              <mxPoint x="140" y="375" />
              <mxPoint x="140" y="455" />
            </Array>
          </mxGeometry>
        </mxCell>
        <mxCell id="tMtmgjyBRn-5rdvHNmGA-21" value="product result" style="rounded=0;whiteSpace=wrap;html=1;" parent="1" vertex="1">
          <mxGeometry y="360" width="130" height="30" as="geometry" />
        </mxCell>
        <mxCell id="tMtmgjyBRn-5rdvHNmGA-22" value="common or resuables" style="text;html=1;strokeColor=none;fillColor=none;align=center;verticalAlign=middle;whiteSpace=wrap;rounded=0;" parent="1" vertex="1">
          <mxGeometry x="320" y="80" width="120" height="30" as="geometry" />
        </mxCell>
        <mxCell id="tMtmgjyBRn-5rdvHNmGA-23" value="skeleton feedback" style="rounded=0;whiteSpace=wrap;html=1;" parent="1" vertex="1">
          <mxGeometry x="320" y="120" width="130" height="30" as="geometry" />
        </mxCell>
        <mxCell id="tMtmgjyBRn-5rdvHNmGA-24" value="card list" style="rounded=0;whiteSpace=wrap;html=1;" parent="1" vertex="1">
          <mxGeometry x="320" y="160" width="130" height="30" as="geometry" />
        </mxCell>
        <mxCell id="tMtmgjyBRn-5rdvHNmGA-33" value="skeleton feedback" style="rounded=0;whiteSpace=wrap;html=1;" parent="1" vertex="1">
          <mxGeometry x="320" y="320" width="130" height="30" as="geometry" />
        </mxCell>
        <mxCell id="tMtmgjyBRn-5rdvHNmGA-39" value="card list" style="rounded=0;whiteSpace=wrap;html=1;" parent="1" vertex="1">
          <mxGeometry x="320" y="360" width="130" height="30" as="geometry" />
        </mxCell>
        <mxCell id="tMtmgjyBRn-5rdvHNmGA-44" style="edgeStyle=orthogonalEdgeStyle;rounded=0;orthogonalLoop=1;jettySize=auto;html=1;entryX=0;entryY=0.5;entryDx=0;entryDy=0;" parent="1" source="tMtmgjyBRn-5rdvHNmGA-41" target="tMtmgjyBRn-5rdvHNmGA-43" edge="1">
          <mxGeometry relative="1" as="geometry" />
        </mxCell>
        <mxCell id="tMtmgjyBRn-5rdvHNmGA-41" value="product result loader" style="rounded=0;whiteSpace=wrap;html=1;" parent="1" vertex="1">
          <mxGeometry x="160" y="400" width="130" height="30" as="geometry" />
        </mxCell>
        <mxCell id="tMtmgjyBRn-5rdvHNmGA-43" value="skeleton feedback" style="rounded=0;whiteSpace=wrap;html=1;" parent="1" vertex="1">
          <mxGeometry x="320" y="400" width="130" height="30" as="geometry" />
        </mxCell>
        <mxCell id="tMtmgjyBRn-5rdvHNmGA-47" style="edgeStyle=orthogonalEdgeStyle;rounded=0;orthogonalLoop=1;jettySize=auto;html=1;" parent="1" source="tMtmgjyBRn-5rdvHNmGA-45" target="tMtmgjyBRn-5rdvHNmGA-46" edge="1">
          <mxGeometry relative="1" as="geometry" />
        </mxCell>
        <mxCell id="tMtmgjyBRn-5rdvHNmGA-45" value="products filter" style="rounded=0;whiteSpace=wrap;html=1;" parent="1" vertex="1">
          <mxGeometry x="160" y="440" width="130" height="30" as="geometry" />
        </mxCell>
        <mxCell id="tMtmgjyBRn-5rdvHNmGA-46" value="filter" style="rounded=0;whiteSpace=wrap;html=1;" parent="1" vertex="1">
          <mxGeometry x="320" y="440" width="130" height="30" as="geometry" />
        </mxCell>
        <mxCell id="tMtmgjyBRn-5rdvHNmGA-53" style="edgeStyle=orthogonalEdgeStyle;rounded=0;orthogonalLoop=1;jettySize=auto;html=1;entryX=1;entryY=0.5;entryDx=0;entryDy=0;dashed=1;strokeColor=#007FFF;" parent="1" source="tMtmgjyBRn-5rdvHNmGA-51" target="tMtmgjyBRn-5rdvHNmGA-10" edge="1">
          <mxGeometry relative="1" as="geometry">
            <Array as="points">
              <mxPoint x="510" y="535" />
              <mxPoint x="510" y="255" />
            </Array>
          </mxGeometry>
        </mxCell>
        <mxCell id="tMtmgjyBRn-5rdvHNmGA-58" value="reused by" style="edgeLabel;html=1;align=center;verticalAlign=middle;resizable=0;points=[];" parent="tMtmgjyBRn-5rdvHNmGA-53" vertex="1" connectable="0">
          <mxGeometry x="-0.7765" relative="1" as="geometry">
            <mxPoint as="offset" />
          </mxGeometry>
        </mxCell>
        <mxCell id="tMtmgjyBRn-5rdvHNmGA-51" value="brand list (custom)" style="rounded=0;whiteSpace=wrap;html=1;" parent="1" vertex="1">
          <mxGeometry x="160" y="520" width="130" height="30" as="geometry" />
        </mxCell>
        <mxCell id="tMtmgjyBRn-5rdvHNmGA-60" style="edgeStyle=orthogonalEdgeStyle;rounded=0;orthogonalLoop=1;jettySize=auto;html=1;entryX=0;entryY=0.5;entryDx=0;entryDy=0;strokeColor=#000000;" parent="1" source="tMtmgjyBRn-5rdvHNmGA-59" target="tMtmgjyBRn-5rdvHNmGA-18" edge="1">
          <mxGeometry relative="1" as="geometry" />
        </mxCell>
        <mxCell id="tMtmgjyBRn-5rdvHNmGA-59" value="categories" style="rounded=0;whiteSpace=wrap;html=1;" parent="1" vertex="1">
          <mxGeometry y="480" width="130" height="30" as="geometry" />
        </mxCell>
        <mxCell id="tMtmgjyBRn-5rdvHNmGA-65" value="skeleton feedback" style="rounded=0;whiteSpace=wrap;html=1;" parent="1" vertex="1">
          <mxGeometry x="320" y="560" width="130" height="30" as="geometry" />
        </mxCell>
        <mxCell id="tMtmgjyBRn-5rdvHNmGA-67" style="edgeStyle=orthogonalEdgeStyle;rounded=0;orthogonalLoop=1;jettySize=auto;html=1;strokeColor=#000000;" parent="1" source="tMtmgjyBRn-5rdvHNmGA-66" target="tMtmgjyBRn-5rdvHNmGA-65" edge="1">
          <mxGeometry relative="1" as="geometry" />
        </mxCell>
        <mxCell id="tMtmgjyBRn-5rdvHNmGA-66" value="brand loader" style="rounded=0;whiteSpace=wrap;html=1;" parent="1" vertex="1">
          <mxGeometry x="160" y="560" width="130" height="30" as="geometry" />
        </mxCell>
      </root>
    </mxGraphModel>
  </diagram>
</mxfile>
